HIERARCHY
ROOT joint_0
{
	OFFSET 0.000000 0.000000 0.000000
	CHANNELS 6 Xposition Yposition Zposition Zrotation Yrotation Xrotation 
	JOINT joint_1
	{
		OFFSET 7.566162 2.250183 114.799927
		CHANNELS 3 Zrotation Yrotation Xrotation
		JOINT joint_2
		{
			OFFSET -5.201660 -0.414001 104.936035
			CHANNELS 3 Zrotation Yrotation Xrotation
			JOINT joint_3
			{
				OFFSET -6.923584 -0.419739 104.718018
				CHANNELS 3 Zrotation Yrotation Xrotation
				JOINT joint_4
				{
					OFFSET 3.108887 2.881104 149.449951
					CHANNELS 3 Zrotation Yrotation Xrotation
					JOINT joint_5
					{
						OFFSET 19.988770 5.920349 90.786987
						CHANNELS 3 Zrotation Yrotation Xrotation
						End Site
						{
							OFFSET 0.000000 0.000000 0.000000
						}
					}
				}
				JOINT joint_6
				{
					OFFSET 9.283936 -30.015930 84.410034
					CHANNELS 3 Zrotation Yrotation Xrotation
					JOINT joint_7
					{
						OFFSET 47.243164 -155.716736 -23.241089
						CHANNELS 3 Zrotation Yrotation Xrotation
						JOINT joint_8
						{
							OFFSET 31.323730 -15.356873 -268.798950
							CHANNELS 3 Zrotation Yrotation Xrotation
							JOINT joint_9
							{
								OFFSET 28.122314 -2.114624 -262.450012
								CHANNELS 3 Zrotation Yrotation Xrotation
								End Site
								{
									OFFSET 0.000000 0.000000 0.000000
								}
							}
						}
					}
				}
				JOINT joint_10
				{
					OFFSET -5.580566 33.311218 83.498047
					CHANNELS 3 Zrotation Yrotation Xrotation
					JOINT joint_11
					{
						OFFSET -22.773438 160.515381 -27.138062
						CHANNELS 3 Zrotation Yrotation Xrotation
						JOINT joint_12
						{
							OFFSET 27.004395 30.848877 -267.937988
							CHANNELS 3 Zrotation Yrotation Xrotation
							JOINT joint_13
							{
								OFFSET 32.625000 14.824585 -261.518005
								CHANNELS 3 Zrotation Yrotation Xrotation
								End Site
								{
									OFFSET 0.000000 0.000000 0.000000
								}
							}
						}
					}
				}
			}
		}
	}
	JOINT joint_14
	{
		OFFSET 20.623535 -83.447632 -106.174011
		CHANNELS 3 Zrotation Yrotation Xrotation
		JOINT joint_15
		{
			OFFSET 0.661865 -23.563843 -459.915039
			CHANNELS 3 Zrotation Yrotation Xrotation
			JOINT joint_16
			{
				OFFSET -23.461670 -28.727966 -444.760971
				CHANNELS 3 Zrotation Yrotation Xrotation
				JOINT joint_17
				{
					OFFSET 178.992920 54.047363 -80.113001
					CHANNELS 3 Zrotation Yrotation Xrotation
					End Site
					{
						OFFSET 0.000000 0.000000 0.000000
					}
				}
			}
		}
	}
	JOINT joint_18
	{
		OFFSET -19.571533 84.686279 -105.380005
		CHANNELS 3 Zrotation Yrotation Xrotation
		JOINT joint_19
		{
			OFFSET -22.949951 3.639404 -459.933044
			CHANNELS 3 Zrotation Yrotation Xrotation
			JOINT joint_20
			{
				OFFSET -33.690674 4.092651 -445.010971
				CHANNELS 3 Zrotation Yrotation Xrotation
				JOINT joint_21
				{
					OFFSET 187.419678 18.953857 -76.759001
					CHANNELS 3 Zrotation Yrotation Xrotation
					End Site
					{
						OFFSET 0.000000 0.000000 0.000000
					}
				}
			}
		}
	}
}
MOTION
Frames: 16
Frame Time: 0.016667
-2414.613770 1031.746338 1093.243042 -15.723805 3.354885 -0.181812 1.533208 5.176105 -2.127530 1.975618 -0.902315 0.192754 1.970151 1.024192 -0.539191 0.605499 -3.505730 -1.563737 0.000000 0.000000 0.000000 1.298552 1.485673 -5.054668 -1.121736 0.813151 -8.009472 3.214901 -28.062383 19.431876 0.000000 0.000000 0.000000 0.815072 5.409473 -1.139779 3.598150 7.872553 13.382059 -0.847872 -12.507160 -5.011910 0.000000 0.000000 0.000000 -0.813466 5.712441 -9.229196 -1.836664 21.811413 -4.301622 -3.657749 3.521233 -2.207251 0.000000 0.000000 0.000000 4.082690 -28.162544 20.424595 0.544162 38.681719 -5.484892 -4.653243 -9.780607 -0.779762 0.000000 0.000000 0.000000 
-2397.013672 1040.539307 1087.770996 -16.603436 3.078548 -0.137548 1.878958 5.260339 -2.316599 2.098247 -0.882029 0.233633 2.059410 1.028915 -0.569826 0.612254 -3.604813 -1.547690 0.000000 0.000000 0.000000 1.074641 1.588259 -5.196325 -0.887428 1.036571 -7.566433 3.227063 -27.856541 18.169112 0.000000 0.000000 0.000000 0.702650 5.899106 -1.337714 3.462822 8.408521 13.626159 -0.828066 -10.755338 -4.951478 0.000000 0.000000 0.000000 -0.374731 5.963418 -10.082813 -1.725772 22.936399 -4.419282 -3.778321 4.322841 -2.441852 0.000000 0.000000 0.000000 2.924639 -27.400971 20.254569 -0.481110 33.118424 -5.632737 -5.750805 -8.947066 -1.230666 0.000000 0.000000 0.000000 
-2378.968994 1049.835815 1080.784058 -17.524519 2.658228 -0.039099 2.190473 5.498777 -2.480394 2.208017 -0.876188 0.271342 2.141901 1.059099 -0.597516 0.624803 -3.698552 -1.554121 0.000000 0.000000 0.000000 0.876709 1.723401 -5.334383 -0.655985 1.252055 -7.248953 3.235395 -27.885238 16.768973 0.000000 0.000000 0.000000 0.482144 6.369326 -1.634608 3.329829 8.953349 13.835040 -0.789485 -9.005746 -4.758898 0.000000 0.000000 0.000000 0.239517 6.079885 -10.978866 -1.487918 24.718187 -4.630917 -3.915844 5.004849 -2.622596 0.000000 0.000000 0.000000 1.538881 -26.352212 19.965697 -1.826394 27.845631 -5.649136 -6.846128 -7.639830 -1.746982 0.000000 0.000000 0.000000 
-2360.985352 1059.506836 1073.020996 -18.544774 2.087180 0.041920 2.456659 5.959127 -2.512178 2.289414 -0.989910 0.236947 2.211150 1.121755 -0.625048 0.623888 -3.735771 -1.524309 0.000000 0.000000 0.000000 0.711173 1.873976 -5.399386 -0.442842 1.344231 -7.286172 3.309666 -28.426365 15.727566 0.000000 0.000000 0.000000 0.372720 6.861952 -1.878020 3.174290 9.454262 13.766471 -0.734937 -7.493261 -4.384569 0.000000 0.000000 0.000000 1.051698 5.826786 -11.892721 -1.106636 27.578495 -4.840975 -4.144213 5.163084 -2.636183 0.000000 0.000000 0.000000 0.607328 -25.536454 19.616330 -2.744018 25.085804 -5.260024 -7.601768 -6.145635 -2.171449 0.000000 0.000000 0.000000 
-2342.560059 1070.136963 1063.624023 -19.592745 1.477716 0.237815 2.648302 6.291482 -2.621974 2.265562 -1.087680 0.247685 2.167526 1.224176 -0.657880 0.593608 -3.609402 -1.435857 0.000000 0.000000 0.000000 0.572956 2.063904 -5.322360 -0.241573 1.205091 -7.984524 3.522827 -29.770372 15.398742 0.000000 0.000000 0.000000 0.529670 7.481846 -1.911247 2.959156 9.924795 13.156784 -0.660597 -6.340947 -3.709005 0.000000 0.000000 0.000000 2.229526 5.058946 -13.174037 -0.502162 31.927234 -4.744345 -4.437099 4.632620 -2.389251 0.000000 0.000000 0.000000 0.511589 -25.605377 18.985748 -2.631274 26.848565 -4.760115 -8.126013 -5.067722 -2.472261 0.000000 0.000000 0.000000 
-2324.197266 1081.141602 1053.453003 -20.652403 0.875673 0.558518 2.802083 6.543352 -2.877127 2.174677 -1.140640 0.346714 2.041257 1.346974 -0.698260 0.553391 -3.422462 -1.334859 0.000000 0.000000 0.000000 0.461638 2.256647 -5.164831 -0.028289 0.913155 -9.050737 3.819248 -31.586557 15.403630 0.000000 0.000000 0.000000 0.807579 8.116796 -1.855555 2.715406 10.331279 12.234557 -0.569954 -5.401610 -2.837924 0.000000 0.000000 0.000000 3.684936 3.912378 -14.647099 0.313959 37.123743 -4.395627 -4.877897 4.050518 -2.096067 0.000000 0.000000 0.000000 0.988811 -26.210378 18.124803 -1.807968 31.271093 -4.288183 -8.598490 -4.127402 -2.740352 0.000000 0.000000 0.000000 
-2307.900635 1090.628052 1045.821045 -21.480131 0.342186 0.802857 2.905729 7.028600 -3.050379 2.042707 -1.244038 0.410756 1.877382 1.473429 -0.735755 0.532090 -3.436809 -1.246742 0.000000 0.000000 0.000000 0.398756 2.361780 -5.075042 0.191492 0.675897 -9.785995 4.073899 -33.261679 15.155647 0.000000 0.000000 0.000000 0.966147 8.492673 -1.950763 2.526177 10.558620 11.489516 -0.475804 -4.536240 -2.033465 0.000000 0.000000 0.000000 4.912062 2.382276 -15.533826 1.058038 42.234509 -4.244394 -5.905306 3.809271 -2.067819 0.000000 0.000000 0.000000 1.538298 -26.826938 17.450768 -0.988248 35.329306 -3.915384 -9.050689 -3.213371 -2.998191 0.000000 0.000000 0.000000 
-2294.744385 1098.142456 1041.917969 -21.756384 -0.038161 0.925204 2.875043 7.812692 -3.107123 1.794132 -1.345551 0.417047 1.608319 1.612324 -0.750155 0.546064 -3.855346 -1.162537 0.000000 0.000000 0.000000 0.451831 2.367032 -5.170520 0.400032 0.661525 -9.828468 4.233871 -34.861734 14.392529 0.000000 0.000000 0.000000 0.877611 8.474006 -2.345969 2.434297 10.554950 11.135718 -0.380058 -3.709419 -1.343597 0.000000 0.000000 0.000000 5.631275 0.140818 -15.475538 1.501861 47.473683 -4.630855 -8.253636 4.030080 -2.579396 0.000000 0.000000 0.000000 1.874465 -27.778196 17.098977 -0.568525 38.759843 -3.802826 -9.795387 -2.850649 -3.304708 0.000000 0.000000 0.000000 
-2283.655273 1104.138794 1040.553955 -21.717566 -0.300225 1.005071 2.772325 8.709838 -3.189110 1.474496 -1.426700 0.441893 1.271196 1.745914 -0.746148 0.577144 -4.474384 -1.070273 0.000000 0.000000 0.000000 0.555819 2.303262 -5.338026 0.600813 0.737242 -9.529243 4.349508 -36.356588 13.389983 0.000000 0.000000 0.000000 0.662390 8.209126 -2.840859 2.398958 10.380145 10.937284 -0.281369 -2.969981 -0.702358 0.000000 0.000000 0.000000 6.175055 -2.521155 -14.905247 1.881324 52.695878 -5.005107 -11.462124 4.374585 -3.346761 0.000000 0.000000 0.000000 2.152226 -28.836676 16.863435 -0.234102 42.007950 -3.798854 -10.510006 -2.740216 -3.576878 0.000000 0.000000 0.000000 
-2273.423828 1108.097046 1041.484985 -21.559627 -0.415073 1.033581 2.684624 9.353065 -3.318087 1.152082 -1.488357 0.499051 0.926301 1.840749 -0.736984 0.598220 -4.956163 -0.983956 0.000000 0.000000 0.000000 0.566915 2.155051 -5.408545 0.789978 0.698997 -9.226919 4.440686 -37.047795 12.401432 0.000000 0.000000 0.000000 0.474124 7.859787 -3.174715 2.377871 10.097326 10.730536 -0.192092 -2.340770 -0.187243 0.000000 0.000000 0.000000 6.578108 -5.000561 -14.227596 2.215063 56.873375 -4.890996 -14.006116 3.956810 -3.709245 0.000000 0.000000 0.000000 2.183211 -29.126259 16.669651 0.104040 43.695037 -3.909030 -10.565177 -2.599393 -3.615760 0.000000 0.000000 0.000000 
-2263.698975 1109.490601 1045.083984 -21.329934 -0.335990 0.949857 2.668761 9.570673 -3.436349 0.850831 -1.550897 0.556332 0.588467 1.910299 -0.741006 0.594255 -5.172523 -0.906632 0.000000 0.000000 0.000000 0.396069 1.938057 -5.296837 0.958893 0.484354 -9.026389 4.491962 -36.667015 11.394899 0.000000 0.000000 0.000000 0.392781 7.449383 -3.260647 2.351894 9.694848 10.512345 -0.111677 -1.776441 0.212978 0.000000 0.000000 0.000000 6.636274 -7.223254 -13.451313 2.333793 59.852487 -4.418012 -14.933982 2.029112 -3.301783 0.000000 0.000000 0.000000 1.836496 -28.213759 16.583256 0.476157 43.091556 -4.271303 -9.635795 -2.547026 -3.288192 0.000000 0.000000 0.000000 
-2254.832275 1108.846191 1050.977051 -21.010528 -0.107278 0.766161 2.661129 9.533233 -3.499236 0.569105 -1.606608 0.593519 0.263214 1.957836 -0.745318 0.579482 -5.258490 -0.844165 0.000000 0.000000 0.000000 0.135846 1.631586 -5.090602 1.090017 0.155027 -8.803355 4.491960 -35.495612 10.404270 0.000000 0.000000 0.000000 0.341222 6.960614 -3.220856 2.329595 9.194179 10.317100 -0.046312 -1.339401 0.510024 0.000000 0.000000 0.000000 6.292705 -9.430160 -12.434141 2.182961 61.953368 -3.991430 -14.954431 -0.730287 -2.535993 0.000000 0.000000 0.000000 1.308356 -26.580656 16.577777 0.821005 40.960894 -4.782545 -8.159489 -2.618741 -2.746475 0.000000 0.000000 0.000000 
-2246.670898 1107.223633 1057.796021 -20.641417 0.192829 0.553515 2.551110 9.328406 -3.481835 0.314757 -1.598732 0.614142 -0.017128 1.956321 -0.730426 0.565975 -5.277509 -0.806076 0.000000 0.000000 0.000000 -0.072834 1.164593 -4.884529 1.158204 -0.304509 -8.542342 4.457485 -33.670728 9.780450 0.000000 0.000000 0.000000 0.240306 6.491857 -3.131056 2.308337 8.707039 10.054481 -0.023696 -1.220565 0.629467 0.000000 0.000000 0.000000 5.696769 -11.603664 -11.304530 1.836187 63.041597 -3.807373 -14.858117 -3.239598 -1.899543 0.000000 0.000000 0.000000 0.846731 -24.803626 16.519342 1.061208 38.240064 -5.170263 -6.692024 -2.549888 -2.218734 0.000000 0.000000 0.000000 
-2239.270020 1104.795288 1065.688965 -20.213846 0.570185 0.315157 2.278022 8.904152 -3.371375 0.078484 -1.491091 0.620522 -0.244071 1.880727 -0.683295 0.555802 -5.227747 -0.789885 0.000000 0.000000 0.000000 -0.218193 0.395263 -4.673073 1.142171 -1.022180 -8.208899 4.368024 -30.728084 9.711969 0.000000 0.000000 0.000000 0.032944 6.080047 -3.029921 2.286896 8.281936 9.696903 -0.049274 -1.448963 0.571626 0.000000 0.000000 0.000000 4.897794 -13.739789 -10.077942 1.304677 62.892577 -3.819802 -14.958013 -5.024036 -1.608878 0.000000 0.000000 0.000000 0.487240 -22.919745 16.339724 1.186960 34.907136 -5.280360 -5.262556 -2.214893 -1.730126 0.000000 0.000000 0.000000 
-2232.574707 1101.389893 1074.506958 -19.821060 0.966726 0.028286 1.938329 8.422702 -3.139579 -0.110546 -1.380886 0.588025 -0.399381 1.757202 -0.618310 0.547756 -5.111463 -0.798761 0.000000 0.000000 0.000000 -0.315509 -0.526819 -4.411006 1.049393 -1.888183 -7.855999 4.186180 -27.056287 9.928894 0.000000 0.000000 0.000000 -0.224437 5.682933 -2.909252 2.267772 7.873487 9.314879 -0.117991 -1.999230 0.339794 0.000000 0.000000 0.000000 4.035157 -15.678045 -8.714327 0.687740 61.604319 -3.875182 -14.929063 -6.397075 -1.507518 0.000000 0.000000 0.000000 0.265444 -20.777887 16.143441 1.249805 30.875847 -5.196627 -3.854709 -1.557305 -1.281695 0.000000 0.000000 0.000000 
-2226.270752 1097.555054 1082.436035 -19.489716 1.292314 -0.232881 1.615776 8.122056 -2.811586 -0.245943 -1.326334 0.514020 -0.490564 1.646802 -0.545398 0.548525 -4.999696 -0.842167 0.000000 0.000000 0.000000 -0.268291 -1.241418 -4.206211 0.939931 -2.537743 -7.577641 3.986916 -24.149892 10.167988 0.000000 0.000000 0.000000 -0.447554 5.275088 -2.762322 2.264377 7.447260 8.948266 -0.235543 -2.987357 -0.137782 0.000000 0.000000 0.000000 3.319903 -17.270375 -7.383454 0.068533 59.584945 -4.042529 -14.613714 -7.639718 -1.409817 0.000000 0.000000 0.000000 0.197977 -18.827210 16.075250 1.208826 27.189599 -5.163501 -2.877323 -0.684563 -1.013351 0.000000 0.000000 0.000000 
